<?xml version="1.0" encoding="utf-8"?>
<!-- Generator: Adobe Illustrator 26.0.0, SVG Export Plug-In . SVG Version: 6.00 Build 0)  -->
<svg version="1.1" id="Layer_1" xmlns="http://www.w3.org/2000/svg" xmlns:xlink="http://www.w3.org/1999/xlink" x="0px" y="0px"
	 viewBox="0 0 734 85" style="enable-background:new 0 0 734 85;" xml:space="preserve">
<style type="text/css">
	.st0{fill:#FFFFFF;}
	.st1{fill:#999999;}
</style>
<path class="st0" d="M19.2,42.3l-9.6,9.5L0,42.3l9.6-9.5L19.2,42.3z M42.6,19L59,35.5l9.6-9.5L52.1,9.5L42.6,0L33,9.5L16.4,25.9
	l9.6,9.5L42.6,19z M75.5,32.7l-9.6,9.5l9.6,9.5l9.6-9.5L75.5,32.7z M42.6,65.4L26.1,49.1l-9.7,9.5l16.4,16.3l9.6,9.5l9.6-9.5
	l16.5-16.3L59,49.1L42.6,65.4z M42.6,51.8l9.6-9.5l-9.6-9.5L33,42.3L42.6,51.8z M144,52.7v-0.1c0-6.2-3.4-9.3-8.7-11.4
	c3.4-1.9,6.1-4.8,6.1-10v-0.1c0-7.3-5.9-12-15.4-12h-21.7v46.3h22.2C137.1,65.4,144,61.2,144,52.7z M131.2,32.9
	c0,3.5-2.8,4.9-7.4,4.9h-9.5V28h10.1c4.3,0,6.7,1.7,6.7,4.8V32.9z M133.8,51.5c0,3.5-2.7,5-7.3,5h-12.2V46.3h11.9
	c5.3,0,7.6,1.9,7.6,5V51.5z M165.5,65.4V19h-10.2v46.3H165.5z M220.7,65.4V19h-10.1v28.6L188.7,19h-9.5v46.3h10.1V36L212,65.5h8.7
	V65.4z M277.6,65.4l-20-46.7h-9.5l-20,46.7h10.4l4.3-10.4h19.7l4.3,10.4H277.6z M258.9,46h-12.4l6.2-15.1L258.9,46z M326.5,65.4V19
	h-10.1v28.6L294.4,19H285v46.3h10.1V36l22.7,29.5h8.7V65.4z M379.6,57.9l-6.5-6.6c-3.7,3.3-7,5.4-12.2,5.4c-8,0-13.5-6.6-13.5-14.5
	v-0.1c0-7.9,5.7-14.4,13.5-14.4c4.6,0,8.3,2,11.9,5.2l6.5-7.5c-4.3-4.3-9.6-7.1-18.4-7.1c-14.3,0-24.3,10.8-24.3,24v0.1
	c0,13.3,10.2,23.8,23.9,23.8C369.3,66.2,374.7,63.1,379.6,57.9z M423.3,65.4v-9.1H398v-9.7h22v-9.1h-22V28h25v-9.1h-35.2v46.3h35.5
	V65.4z"/>
<path class="st1" d="M459.4,31.1c0,3.6,2.1,5.2,11,7.3c9.8,2.4,14.9,5.9,14.9,13.6c0,8.7-6.8,13.9-16.5,13.9
	c-7.1,0-13.7-2.4-19.3-7.4l4.9-5.8c4.4,3.8,8.8,6,14.6,6c5,0,8.2-2.3,8.2-5.9c0-3.4-1.8-5.1-10.4-7.1c-9.8-2.4-15.4-5.3-15.4-13.9
	c0-8.1,6.6-13.5,15.8-13.5c6.7,0,12.1,2,16.8,5.8l-4.4,6.1c-4.2-3.1-8.3-4.8-12.5-4.8C462.2,25.6,459.4,28,459.4,31.1z"/>
<path class="st1" d="M536.4,56.4l5.3,4.5l-5.2,5.8l-5.5-4.9c-3.9,2.7-8.6,4.4-14.1,4.4c-14.2,0-24.1-10.8-24.1-23.8s10-24,24.2-24
	c14.2,0,24.1,10.8,24.1,23.8C541.1,47.4,539.3,52.3,536.4,56.4z M524.9,56.4l-7.9-6.7l5.2-5.9l8,7.3c1.6-2.4,2.4-5.5,2.4-8.7
	c0-9-6.5-16.5-15.7-16.5s-15.6,7.3-15.6,16.4s6.5,16.5,15.7,16.5C520,58.6,522.7,57.7,524.9,56.4z"/>
<path class="st1" d="M589.7,19.1v26.2c0,13.8-7.8,20.7-19.9,20.7c-12,0-19.7-6.9-19.7-20.3V19.1h8.1v26.3c0,8.6,4.4,13.2,11.7,13.2
	c7.2,0,11.6-4.4,11.6-12.9V19.1H589.7z"/>
<path class="st1" d="M623,18.7l20.3,46.5h-8.6l-4.7-11.2h-21.8l-4.8,11.2h-8.3l20.3-46.5H623z M627.1,46.9l-8-18.5l-7.9,18.5H627.1z
	"/>
<path class="st1" d="M690.5,65.3h-9.6l-11.4-16.1h-10.2v16.1h-8.1V19.1h20.6c10.6,0,17.2,5.6,17.2,14.7c0,7.7-4.6,12.3-11,14.1
	L690.5,65.3z M680.8,34.2c0-5.1-3.6-7.7-9.6-7.7h-11.8V42h11.9C677.1,42,680.8,38.9,680.8,34.2z"/>
<path class="st1" d="M733.2,19.1v7.3h-26.1v12h23.2v7.3h-23.2V58h26.5v7.3H699V19.1H733.2z"/>
</svg>
