<?xml version="1.0" encoding="utf-8"?>
<!-- Generator: Adobe Illustrator 26.0.0, SVG Export Plug-In . SVG Version: 6.00 Build 0)  -->
<svg version="1.1" id="Layer_1" xmlns:serif="http://www.serif.com/"
	 xmlns="http://www.w3.org/2000/svg" xmlns:xlink="http://www.w3.org/1999/xlink" x="0px" y="0px" viewBox="0 0 1280 720"
	 style="enable-background:new 0 0 1280 720;" xml:space="preserve">
<style type="text/css">
	.st0{fill-rule:evenodd;clip-rule:evenodd;fill:#FFFFFF;}
	.st1{fill:#FFFFFF;}
</style>
<g transform="matrix(1,0,0,1,-772.895,-566.996)">
	<g transform="matrix(1,0,0,1,172.431,0)">
		<g transform="matrix(0.70952,0,0,0.70952,79.1247,873.931)">
			<g transform="matrix(0.957746,0,0,0.957746,-484.36,-1119.18)">
				<g>
					<g>
						<g>
							<g transform="matrix(1,0,0,1,1213.44,-72.6825)">
								<path class="st0" d="M268.9,1404.8l-41.4,20.5v-153.8l41.4-20.5V1404.8z M325.1,1377l-41.4,20.5v-153.8l41.4-20.5h0V1377z
									 M339.9,1369.6v-153.8l41.4-20.5v153.8L339.9,1369.6z"/>
							</g>
							<g transform="matrix(1,0,0,1,1213.44,-72.6995)">
								<path class="st0" d="M213.1,1383.8v41.4l-153.6-76v-41.4L213.1,1383.8z M213.1,1327.5v41.4l-153.6-76v-41.4L213.1,1327.5z
									 M213.1,1271.3v41.4l-153.6-76v-41.4L213.1,1271.3z"/>
							</g>
						</g>
						<g transform="matrix(1,0,0,1,1213.44,-88.9345)">
							<path class="st1" d="M479.5,1163v237.4h121.6c56.9,0,93.5-25.7,93.5-66.4c0-30.1-18.6-53.8-47.7-59.9
								c24.7-7.1,40.3-27.1,40.3-51.1c0-36.6-35.6-59.9-91.1-59.9H479.5z M549.6,1215.9h42.7c13.9,0,22.7,7.4,22.7,19.6
								c0,12.5-8.8,20.7-22.7,20.7h-42.7V1215.9z M549.6,1304.2h42.7c17.9,0,29.1,8.1,29.1,21c0,13.9-11.2,22.7-29.1,22.7h-42.7
								V1304.2z"/>
						</g>
						<g transform="matrix(1,0,0,1,1213.44,-88.9336)">
							<rect x="736.9" y="1163" class="st0" width="70.4" height="237.4"/>
						</g>
						<g transform="matrix(1,0,0,1,1213.44,-88.9345)">
							<path class="st1" d="M1032.5,1219.2V1163H850v56.2h55.7v181.2h70.8v-181.2H1032.5z"/>
						</g>
						<g transform="matrix(1,0,0,1,1213.44,-88.7505)">
							<path class="st1" d="M1185.1,1160.8c-73.5,0-127.7,51.1-127.7,120.2c0,70.1,53.2,122.2,125.3,122.2
								c35.9,0,74.8-17.9,100.6-45.7l-40.6-43.3c-16.3,16.6-38.3,27.4-56.5,27.4c-32.2,0-56.6-26.4-56.6-61.3
								c0-34.9,24.4-60.9,56.6-60.9c19.6,0,41.6,12.5,56.5,31.5l40.6-48.1C1259.2,1177.1,1221,1160.8,1185.1,1160.8z"/>
						</g>
						<g transform="matrix(1,0,0,1,1213.44,-88.7505)">
							<path class="st1" d="M1430.2,1160.8c-74.5,0-129.4,50.8-129.4,120.5c0,70.1,54.9,121.9,129.4,121.9
								c74.5,0,129.4-52.1,129.4-121.9C1559.6,1211.9,1504.7,1160.8,1430.2,1160.8z M1431.3,1219.7c31.2,0,56.2,26.1,56.2,62
								c0,35.9-25.1,62.6-56.2,62.6c-31.2,0-58.2-26.8-58.2-62.6C1373,1245.8,1399.8,1219.7,1431.3,1219.7z"/>
						</g>
						<g transform="matrix(1,0,0,1,1213.44,-88.9336)">
							<rect x="1599.6" y="1163" class="st0" width="70.4" height="237.4"/>
						</g>
						<g transform="matrix(1,0,0,1,1213.44,-88.9345)">
							<path class="st1" d="M1937.8,1400.4V1163h-64.3v132.7L1772.9,1163h-60.3v237.4h64.7v-132.1l100.6,132.1H1937.8z"/>
						</g>
						<g>
							<g transform="matrix(1,0,0,1,1213.44,-20.0835)">
								<path class="st1" d="M546.8,1432.4v-59.2h-20.7l-12.9,30.9l-12.9-30.9h-20.7v59.2h17V1400l10.1,26.7h12.8l10.1-26.7v32.4
									H546.8z"/>
							</g>
							<g transform="matrix(1,0,0,1,1213.44,-20.0835)">
								<path class="st1" d="M598.9,1424l3,8.4h20.8l-24-59.2h-20.1l-25,59.2h20.1l3-8.4H598.9z M594.1,1410h-12.3l6.2-17.3
									L594.1,1410z"/>
							</g>
							<g transform="matrix(1,0,0,1,1213.44,-20.0375)">
								<path class="st1" d="M666,1401.2v13.8c-2.9,1.2-5.7,1.9-7.8,1.9c-7.7,0-13.3-5.9-13.3-14.1c0-8,5.6-13.9,13.2-13.9
									c4.9,0,10.6,2.4,14.6,6.2l11.1-13.4c-6.3-5.6-16.4-9.1-25.6-9.1c-19.3,0-33.3,12.7-33.3,30.2c0,17.6,13.5,30.4,32.1,30.4
									c8.4,0,19.3-3.2,25.9-7.6v-24.4H666z"/>
							</g>
							<g transform="matrix(1,0,0,1,1213.44,-20.0835)">
								<path class="st1" d="M733.6,1424l3,8.4h20.8l-24-59.2h-20.1l-25,59.2h20.1l3-8.4H733.6z M728.8,1410h-12.3l6.2-17.3
									L728.8,1410z"/>
							</g>
							<g transform="matrix(1,0,0,1,1213.44,-20.0835)">
								<path class="st1" d="M815.3,1385.5v-12.2h-52.7v15h26.6l-27.6,31.9v12.2h54.3v-15h-28.2L815.3,1385.5z"/>
							</g>
							<g transform="matrix(1,0,0,1,1213.44,-20.0836)">
								<rect x="825.2" y="1373.2" class="st0" width="19.6" height="59.2"/>
							</g>
							<g transform="matrix(1,0,0,1,1213.44,-20.0835)">
								<path class="st1" d="M914.1,1432.4v-59.2h-17.7v30.4l-23.4-30.4h-16.4v59.2h17.8v-30.2l23.3,30.2H914.1z"/>
							</g>
							<g transform="matrix(1,0,0,1,1213.44,-20.0835)">
								<path class="st1" d="M975.9,1388.1v-14.9h-50v59.2h50.8v-14.8h-31.2v-7.3h27.7v-14.9h-27.7v-7.3H975.9z"/>
							</g>
						</g>
					</g>
				</g>
			</g>
			<g transform="matrix(0.163683,0,0,0.163683,745.392,-338.306)">
				<g transform="matrix(57.0916,0,0,57.0916,923.273,-242.985)">
					<path class="st1" d="M80.2,59c-1.1,0-1.9,0.9-1.9,1.9c0,1,0.8,1.9,1.9,1.9c1.1,0,1.9-0.9,1.9-1.9C82.1,59.8,81.2,59,80.2,59z
						 M80.2,62.3c-0.8,0-1.4-0.6-1.4-1.4s0.6-1.4,1.4-1.4c0.8,0,1.4,0.6,1.4,1.4S81,62.3,80.2,62.3z M81,60.5c0-0.4-0.3-0.6-0.7-0.6
						h-0.8v1.8h0.4v-0.5h0.3l0.3,0.5H81l-0.4-0.6C80.9,61,81,60.8,81,60.5z M79.9,60.8v-0.6h0.3c0.2,0,0.3,0.1,0.3,0.3
						c0,0.2-0.1,0.3-0.3,0.3H79.9z"/>
				</g>
			</g>
		</g>
	</g>
</g>
</svg>
