<?xml version="1.0" encoding="utf-8"?>
<!-- Generator: Adobe Illustrator 26.0.0, SVG Export Plug-In . SVG Version: 6.00 Build 0)  -->
<svg version="1.1" id="Layer_1" xmlns="http://www.w3.org/2000/svg" xmlns:xlink="http://www.w3.org/1999/xlink" x="0px" y="0px"
	 viewBox="0 0 1024 300" style="enable-background:new 0 0 1024 300;" xml:space="preserve">
<style type="text/css">
	.st0{display:none;fill:#FFFFFF;}
	.st1{fill:#FFFFFF;}
</style>
<desc>Created with Fabric.js 5.2.4</desc>
<g id="_x34_92f26e9-1971-4024-be55-50442afd5b29" transform="matrix(1 0 0 1 512 150)">
	<rect x="-512" y="-150" vector-effect="non-scaling-stroke" class="st0" width="1024" height="300"/>
</g>
<g id="_x38_ea56f53-0700-4dce-a72c-87f20b42d9be" transform="matrix(Infinity NaN NaN Infinity 0 0)">
</g>
<g id="_x31_c4761e7-a840-45f2-8a1d-8339a6836ad2" transform="matrix(1.63 0 0 1.63 512 150)">
	<path vector-effect="non-scaling-stroke" class="st1" d="M-211.6,10.1c-1.8,1.1-3.9,1.3-5.5,0.4c-2-1.2-3.2-3.9-3.2-7.6V-8.4
		c0-5.4-2.1-9.3-5.7-10.3c-6.1-1.8-10.7,5.7-12.4,8.5l-10.8,17.3v-21.3c-0.1-4.9-1.7-7.8-4.7-8.7c-2-0.6-5-0.3-7.9,4.1L-286,19.8
		c-3.2-6.1-4.9-12.9-4.9-19.8c0-23.3,18.7-42.2,41.6-42.2s41.6,18.9,41.6,42.2v0.1v0.1C-207.4,4.7-208.8,8.3-211.6,10.1L-211.6,10.1
		z M-198.4,0L-198.4,0v-0.1v-0.1c-0.1-28.3-22.9-51.4-50.8-51.4c-28,0-50.8,23.1-50.8,51.6c0,28.4,22.8,51.6,50.8,51.6
		c12.9,0,25.1-4.9,34.5-13.8c1.9-1.8,2-4.7,0.2-6.6c-1.7-1.9-4.6-2-6.5-0.3c0,0,0,0-0.1,0.1c-7.6,7.2-17.8,11.3-28.3,11.3
		c-12.3,0-23.3-5.4-30.9-14l21.7-34.8V9.6c0,7.7,3,10.2,5.5,10.9s6.3,0.2,10.4-6.3l11.9-19.3c0.4-0.6,0.7-1.2,1.1-1.6v9.8
		c0,7.2,2.9,13,7.9,15.8c4.5,2.6,10.2,2.3,14.9-0.6C-201.1,14.5-198.1,7.9-198.4,0z M-127.6-17.6c1.2,0.7,2.3,2.4,2.3,3.9
		c0,2.4-2,4.4-4.3,4.4c-0.6,0-1.1-0.2-1.6-0.3c-2.7-2-6.1-3.3-9.7-3.3c-8.5,0-14.3,6.9-14.3,15.5s5.9,15.4,14.3,15.4
		c4.2,0,8-1.7,10.8-4.4c0.7-0.5,1.6-0.8,2.5-0.8c2.3,0,4.1,1.8,4.1,4.1c0,1.5-0.9,2.8-2,3.5c-4.1,3.5-9.6,5.8-15.3,5.8
		c-13,0-23.6-10.7-23.6-23.9c0-13.2,10.6-23.9,23.6-23.9C-136.1-21.7-131.4-20.2-127.6-17.6z M-103.9-7.6c8.9,0,16.3,7.5,16.3,16.8
		c0,9.2-7.5,17.1-16.3,17.1c-9.3,0-17-7.8-17-17.1C-120.9-0.1-113.1-7.6-103.9-7.6z M-103.9,18c3.9,0,7.2-3.7,7.2-8.7
		s-3.3-8.2-7.2-8.2c-4.2,0-7.7,3.1-7.7,8.2C-111.6,14.2-108.1,18-103.9,18z M-81.9,21.1V-2.5c0-2.6,2-4.7,4.6-4.7
		c2.5,0,4.6,2.1,4.6,4.7v23.6c0,2.6-2.1,4.7-4.6,4.7S-81.9,23.6-81.9,21.1z M-82.6-16.1c0-3.1,2.4-5.5,5.3-5.5c3,0,5.4,2.5,5.4,5.5
		s-2.4,5.4-5.4,5.4C-80.4-10.8-82.6-13.2-82.6-16.1z M-55.1,8.3v12.8c0,2.6-2.1,4.7-4.6,4.7s-4.6-2.1-4.6-4.7V-3.6
		c0-2,1.6-3.6,3.6-3.6s3.5,1.7,3.5,3.6c3.7-3.5,7-4,10.1-4c9.2,0,13.3,6.9,13.3,14.8v13.9c0,2.6-2.1,4.7-4.6,4.7s-4.6-2.1-4.6-4.7
		V8.3c0-4-0.5-7.4-6.3-7.4C-53.5,0.9-55.1,4.3-55.1,8.3L-55.1,8.3z M-4,13.2c-1.1,0-1.8-0.5-2.4-1.2L-17.1,0.4v20.7
		c0,2.6-2.1,4.7-4.6,4.7s-4.6-2.1-4.6-4.7v-41c0.3-0.7,1-1.2,1.7-1.2c0.8,0,1.5,0.7,2,1.2L-5.5-0.7C-5-0.1-4.5,0.2-4,0.2
		c0.3,0,1-0.3,1.5-0.9l17.1-19.2c0.5-0.5,1.1-1.2,2-1.2c0.8,0,1.5,0.5,1.7,1.2v41c0,2.6-2,4.7-4.6,4.7c-2.5,0-4.6-2.1-4.6-4.7V0.4
		L-1.6,12C-2.5,12.7-3.1,13.2-4,13.2L-4,13.2z M40.1,18c4.1,0,7.6-3.7,7.6-8.7S44.1,1,40.1,1s-7.3,3.4-7.3,8.3
		C32.9,14.1,36,18,40.1,18z M50,22.2l-0.2-1.1c-1.8,3.5-7.5,5.1-11.1,5.1c-8.6,0-15-7.8-15-17.1c0-9.2,6.5-16.8,15.5-16.8
		c1.5,0,6.7,0.4,10.7,5.1L50-3.7c0-2,1.5-3.6,3.5-3.6s3.6,1.7,3.6,3.6v25.8c0,2-1.6,3.6-3.6,3.6C51.5,25.8,50,24.1,50,22.2L50,22.2z
		 M82.5,0.9h-1c-5.8,0.3-6.9,3.6-6.9,7.4v12.8c0,2.6-2.1,4.7-4.6,4.7s-4.6-2.1-4.6-4.7V-3.6c0-2,1.6-3.6,3.6-3.6s3.5,1.7,3.5,3.6
		c3.4-3.2,6.2-3.9,9-4h0.9c2.2,0,4.2,1.9,4.2,4.3C86.6-1.1,84.6,0.9,82.5,0.9L82.5,0.9z M118,18.9c0.4,0.7,0.7,1.4,0.7,2.2
		c0,2.4-2.2,4.6-4.6,4.6c-1.6,0-3-1.2-4.1-2.6L99.4,10.8V21c0,2.6-2.1,4.7-4.6,4.7s-4.6-2.1-4.6-4.7v-37.5c0-2.6,2-4.7,4.6-4.7
		s4.6,2.1,4.6,4.7V6.9L110-4.8c1.1-1.2,2.4-2.5,4-2.5c2.3,0,4.4,2.1,4.4,4.5c0,0.7-0.2,1.5-0.6,2.1l-8.4,9.2L118,18.9L118,18.9z
		 M136,1c-2.5,0-6.6,1.3-6.6,5.2h13.3C142.5,2.3,138.4,1,136,1L136,1z M148,12.1h-18.6c0,5.5,5.3,6.4,7.6,6.4c1.7,0,4.1-0.3,6-1.2
		c0.6-0.4,1.5-0.7,2.4-0.7c2,0,3.7,1.7,3.7,3.8c0,1.4-0.9,2.6-2,3.3c-2.8,2.1-6.5,2.6-10,2.6c-9.3,0-17-5-17-16.7
		c0-9.2,4.7-17.2,15.7-17.2c8.9,0,15.6,5.8,15.8,16.1C151.5,10.4,150,12.1,148,12.1L148,12.1z M173.5,26.2H171
		c-7,0-11.1-3.1-11.1-14V0.9h-2.4c-2.2,0-4.1-2-4.1-4.2c0-2.4,2-4.3,4.1-4.3h2.4v-8.7c0-2.6,2-4.7,4.6-4.7c2.5,0,4.6,2.1,4.6,4.7
		v8.7h3.8c2.2,0,4.1,1.9,4.1,4.3c0,2.2-2,4.2-4.1,4.2h-3.8v9.5c0,6.3,0.3,7.6,3.1,7.6h1.3c2.2,0,4.1,1.8,4.1,4.1
		C177.6,24.3,175.8,26.2,173.5,26.2L173.5,26.2z M218-17.6c1.2,0.7,2.3,2.4,2.3,3.9c0,2.4-2,4.4-4.3,4.4c-0.6,0-1.1-0.2-1.6-0.3
		c-2.7-2-6.1-3.3-9.7-3.3c-8.5,0-14.3,6.9-14.3,15.5S196.3,18,204.8,18c4.2,0,8-1.7,10.8-4.4c0.7-0.5,1.6-0.8,2.5-0.8
		c2.3,0,4.1,1.8,4.1,4.1c0,1.5-0.9,2.8-2,3.5c-4.1,3.5-9.6,5.8-15.3,5.8c-13,0-23.6-10.7-23.6-23.9c0-13.2,10.6-23.9,23.6-23.9
		C209.7-21.7,214.3-20.2,218-17.6L218-17.6z M241.3,18c4.1,0,7.6-3.7,7.6-8.7S245.3,1,241.3,1c-4.1,0-7.3,3.4-7.3,8.3
		C234,14.1,237.3,18,241.3,18L241.3,18z M251.2,22.2l-0.2-1.1c-1.8,3.5-7.5,5.1-11.1,5.1c-8.6,0-15-7.8-15-17.1
		c0-9.2,6.5-16.8,15.5-16.8c1.5,0,6.7,0.4,10.7,5.1l0.2-1.1c0-2,1.5-3.6,3.5-3.6s3.6,1.7,3.6,3.6v25.8c0,2-1.6,3.6-3.6,3.6
		C252.7,25.8,251.2,24.1,251.2,22.2z M283.5,18c4.1,0,7.3-3.9,7.3-8.7c0-5-3.3-8.3-7.3-8.3c-4.1,0-7.6,3.3-7.6,8.3
		S279.3,18,283.5,18z M275.8,23.5v11.7c0,2.6-2.1,4.7-4.6,4.7s-4.6-2.1-4.6-4.7V-3.6c0-2,1.6-3.6,3.6-3.6s3.5,1.7,3.5,4
		c3.4-3.5,7.6-4.4,10.8-4.4c8.9,0,15.5,7.5,15.5,16.8c0,9.2-6.3,17.1-15,17.1C282.3,26.2,278.3,25.4,275.8,23.5L275.8,23.5z"/>
</g>
</svg>
