<?xml version="1.0" encoding="utf-8"?>
<!-- Generator: Adobe Illustrator 26.0.0, SVG Export Plug-In . SVG Version: 6.00 Build 0)  -->
<svg version="1.1" id="Layer_1" xmlns="http://www.w3.org/2000/svg" xmlns:xlink="http://www.w3.org/1999/xlink" x="0px" y="0px"
	 viewBox="0 0 168 36" style="enable-background:new 0 0 168 36;" xml:space="preserve">
<style type="text/css">
	.st0{fill:#FFFFFF;}
	.st1{clip-path:url(#SVGID_00000013913630281810917860000006140045872041686684_);}
</style>
<path class="st0" d="M50.4,24.3c-1.1-0.6-2-1.4-2.6-2.5c-0.6-1-0.9-2.2-0.9-3.6c0-1.4,0.3-2.6,0.9-3.6s1.5-1.9,2.6-2.5
	c1.1-0.6,2.3-0.9,3.7-0.9c1.1,0,2.2,0.2,3.2,0.6c0.9,0.4,1.7,1,2.4,1.8l-2,1.8c-0.9-1-2-1.6-3.4-1.6c-0.8,0-1.6,0.2-2.2,0.6
	c-0.7,0.4-1.1,0.9-1.5,1.5c-0.4,0.7-0.6,1.4-0.6,2.2c0,0.8,0.2,1.6,0.6,2.2c0.4,0.7,0.9,1.1,1.5,1.5c0.7,0.4,1.4,0.6,2.2,0.6
	c1.3,0,2.5-0.5,3.4-1.6l2,1.8c-0.6,0.8-1.5,1.4-2.4,1.8c-0.9,0.4-2,0.6-3.2,0.6C52.8,25.2,51.5,24.9,50.4,24.3z"/>
<path class="st0" d="M65.4,14.8c0.6-0.3,1.3-0.4,2.1-0.4v2.8c-0.3,0-0.6-0.1-0.7-0.1c-0.9,0-1.5,0.3-2,0.7c-0.5,0.5-0.7,1.2-0.7,2.2
	V25h-3V14.6h2.8V16C64.3,15.4,64.7,15.1,65.4,14.8z"/>
<path class="st0" d="M79.3,14.6l-4.7,11c-0.5,1.2-1,2-1.8,2.5c-0.7,0.5-1.6,0.7-2.5,0.7c-0.5,0-1.1-0.1-1.6-0.3
	c-0.5-0.2-0.9-0.4-1.3-0.7l1.1-2.1c0.2,0.2,0.5,0.4,0.8,0.5c0.3,0.1,0.6,0.2,0.9,0.2c0.4,0,0.7-0.1,1-0.3c0.3-0.2,0.5-0.5,0.7-1
	l0.2-0.1l-4.5-10.4h3.1l2.9,7.1l2.9-7.1H79.3z"/>
<path class="st0" d="M88.8,15.1c0.8,0.5,1.4,1,1.9,1.9c0.5,0.8,0.7,1.7,0.7,2.8c0,1.1-0.2,2-0.7,2.8c-0.5,0.8-1,1.4-1.9,1.9
	c-0.8,0.4-1.7,0.7-2.6,0.7c-1.3,0-2.3-0.4-3.1-1.3v4.8h-3V14.6h2.8v1.2c0.7-0.9,1.8-1.4,3.2-1.4C87.1,14.5,88,14.7,88.8,15.1z
	 M87.5,21.9c0.5-0.5,0.7-1.2,0.7-2.1c0-0.9-0.3-1.6-0.7-2.1c-0.5-0.5-1.1-0.8-1.9-0.8c-0.8,0-1.4,0.3-1.9,0.8
	c-0.5,0.5-0.7,1.2-0.7,2.1c0,0.9,0.3,1.6,0.7,2.1c0.5,0.5,1.1,0.8,1.9,0.8C86.4,22.7,87,22.4,87.5,21.9z"/>
<path class="st0" d="M99.5,24.5c-0.3,0.2-0.7,0.4-1.1,0.5c-0.4,0.1-0.9,0.2-1.3,0.2c-1.2,0-2.2-0.3-2.8-0.9c-0.7-0.6-1-1.6-1-2.8
	v-4.3h-1.6v-2.3h1.6v-2.5h3v2.5h2.5v2.3h-2.5v4.2c0,0.4,0.1,0.8,0.3,1c0.2,0.3,0.5,0.4,0.9,0.4c0.5,0,0.9-0.1,1.2-0.4L99.5,24.5z"/>
<path class="st0" d="M102.3,24.4c-0.9-0.5-1.6-1.1-2-1.9c-0.5-0.8-0.7-1.7-0.7-2.8c0-1,0.3-1.9,0.7-2.8c0.5-0.8,1.1-1.5,2-1.9
	c0.9-0.5,1.8-0.7,2.9-0.7s2.1,0.2,2.9,0.7c0.9,0.5,1.5,1.1,2,1.9c0.5,0.8,0.7,1.7,0.7,2.8c0,1-0.3,1.9-0.7,2.8
	c-0.5,0.8-1.1,1.5-2,1.9c-0.8,0.5-1.8,0.7-2.9,0.7S103.1,24.9,102.3,24.4z M107.1,21.9c0.5-0.5,0.7-1.2,0.7-2.1
	c0-0.9-0.3-1.6-0.7-2.1c-0.5-0.5-1.1-0.8-1.9-0.8c-0.8,0-1.4,0.3-1.9,0.8s-0.7,1.2-0.7,2.1c0,0.9,0.3,1.6,0.7,2.1
	c0.5,0.5,1.1,0.8,1.9,0.8C106,22.7,106.6,22.4,107.1,21.9z"/>
<path class="st0" d="M128.5,11.5V25h-2.5l-6.7-8.2V25h-3.1V11.5h2.5l6.7,8.2v-8.2H128.5z"/>
<path class="st0" d="M141,20.6h-7.8c0.2,0.6,0.5,1.1,1,1.5c0.5,0.4,1.2,0.6,2,0.6c0.5,0,1-0.1,1.5-0.3c0.4-0.2,0.8-0.4,1.1-0.8
	l1.6,1.7c-1,1.1-2.4,1.7-4.2,1.7c-1.1,0-2.2-0.2-3.1-0.7c-0.9-0.5-1.6-1.1-2.1-1.9c-0.5-0.8-0.7-1.7-0.7-2.8c0-1,0.3-1.9,0.7-2.8
	c0.5-0.8,1.1-1.5,2-1.9c0.8-0.5,1.8-0.7,2.8-0.7c1,0,1.9,0.2,2.7,0.7c0.8,0.4,1.4,1,1.9,1.9c0.5,0.8,0.7,1.8,0.7,2.8
	C141.1,19.9,141.1,20.1,141,20.6z M134,17.3c-0.5,0.4-0.7,0.9-0.8,1.6h5.1c-0.1-0.7-0.4-1.2-0.8-1.6c-0.5-0.4-1-0.6-1.7-0.6
	C135.1,16.7,134.5,16.9,134,17.3z"/>
<path class="st0" d="M158.9,14.6L155.2,25h-2.8l-2.3-6.4l-2.4,6.4h-2.9L141,14.6h2.8l2.4,7l2.5-7h2.5l2.4,7l2.5-7H158.9z"/>
<path class="st0" d="M160.6,24.8c-0.8-0.2-1.5-0.5-2-0.8l1-2.1c0.5,0.3,1,0.5,1.7,0.7c0.7,0.2,1.3,0.3,1.9,0.3
	c1.2,0,1.9-0.3,1.9-0.9c0-0.3-0.2-0.5-0.5-0.6c-0.4-0.1-0.9-0.3-1.6-0.3c-0.8-0.1-1.6-0.3-2.1-0.5c-0.6-0.2-1-0.5-1.4-0.9
	c-0.4-0.4-0.6-1-0.6-1.8c0-0.7,0.2-1.3,0.6-1.7c0.4-0.5,0.9-0.9,1.7-1.2c0.7-0.3,1.6-0.4,2.5-0.4c0.7,0,1.5,0.1,2.2,0.3
	c0.7,0.2,1.3,0.4,1.8,0.7l-1,2.1c-0.9-0.5-1.9-0.8-3-0.8c-0.6,0-1.1,0.1-1.5,0.3c-0.3,0.2-0.5,0.4-0.5,0.7c0,0.3,0.2,0.5,0.5,0.7
	c0.4,0.1,0.9,0.3,1.7,0.4c0.8,0.2,1.6,0.3,2.1,0.5c0.5,0.2,1,0.5,1.4,0.9c0.4,0.4,0.6,1,0.6,1.8c0,0.6-0.2,1.2-0.6,1.7
	c-0.4,0.5-0.9,0.9-1.7,1.1c-0.7,0.3-1.6,0.4-2.6,0.4C162.3,25.1,161.5,25,160.6,24.8z"/>
<g>
	<defs>
		<rect id="SVGID_1_" width="36" height="36"/>
	</defs>
	<clipPath id="SVGID_00000098928893161140989930000007200792557953619595_">
		<use xlink:href="#SVGID_1_"  style="overflow:visible;"/>
	</clipPath>
	<g style="clip-path:url(#SVGID_00000098928893161140989930000007200792557953619595_);">
		<path class="st0" d="M3.4,8.2C3,8.4,2.7,8.7,2.5,9c-0.2,0.3-0.3,0.7-0.3,1.1v13.4l6.4-3.7v-6.1c0-0.4,0.1-0.8,0.3-1.1
			c0.2-0.3,0.5-0.6,0.8-0.8l5.2-3V1.5L3.4,8.2z"/>
		<path class="st0" d="M21.3,1.5v7.3l-2.1-1.2c-0.3-0.2-0.7-0.3-1.1-0.3c-0.4,0-0.8,0.1-1.1,0.3L15,8.8V1.5L17,0.3
			C17.4,0.1,17.7,0,18.1,0c0.4,0,0.8,0.1,1.1,0.3L21.3,1.5z"/>
		<path class="st0" d="M34,8.8L34,8.8l-6.4,3.7l-6.4-3.7V1.5L34,8.8z"/>
		<path class="st0" d="M18.1,18v7.3l-6.4-3.7v-7.3L18.1,18z"/>
		<path class="st0" d="M24.5,14.3L18.1,18l-6.4-3.7l6.4-3.7L24.5,14.3z"/>
		<path class="st0" d="M27.7,23.5l-8.4,4.9c-0.3,0.2-0.7,0.3-1.1,0.3c-0.4,0-0.8-0.1-1.1-0.3l-5.2-3L5.4,29L17,35.7
			c0.3,0.2,0.7,0.3,1.1,0.3c0.4,0,0.8-0.1,1.1-0.3L34,27.2L27.7,23.5z"/>
		<path class="st0" d="M24.5,14.3v7.3l-6.4,3.7V18L24.5,14.3z"/>
		<path class="st0" d="M11.8,25.3l-3.2,1.8L5.4,29l-2.1-1.2C3,27.6,2.7,27.3,2.5,27c-0.2-0.3-0.3-0.7-0.3-1.1v-2.4l3.2-1.8l3.2-1.8
			v2.4c0,0.4,0.1,0.8,0.3,1.1c0.2,0.3,0.5,0.6,0.8,0.8L11.8,25.3z"/>
	</g>
</g>
</svg>
