<?xml version="1.0" encoding="UTF-8"?>
<svg id="Layer_1" data-name="Layer 1" xmlns="http://www.w3.org/2000/svg" viewBox="0 0 1920 1080">
  <defs>
    <style>
      .cls-1 {
        fill: #fff;
      }
    </style>
  </defs>
  <g>
    <path class="cls-1" d="M1299.63,621.19v-164.82h74.43c11.23,0,34.64,10.86,43.57,18.01,54.59,43.74,26.26,146.8-46.58,146.8h-71.43ZM1334.21,592.72h29.32c64.9,0,60.76-107.88,3.01-107.88h-32.33v107.88Z"/>
    <path class="cls-1" d="M1102.64,456.38v108.63c0,7.01,8.27,19.36,14.51,23,8.26,4.82,28.96,4.78,37.14,0,5.53-3.23,14.51-15.22,14.51-21.5v-110.13h34.59v110.13c0,21.41-19.22,44.14-38.68,51.35-45.38,16.81-96.65-6.77-96.65-58.85v-102.64h34.59Z"/>
    <polygon class="cls-1" points="938.74 456.38 938.74 481.1 936.48 483.35 869.57 483.35 869.57 525.3 922.2 525.3 922.2 550.02 919.94 552.27 869.57 552.27 869.57 621.19 834.98 621.19 834.98 456.38 938.74 456.38"/>
    <polygon class="cls-1" points="994.38 456.38 994.38 594.22 1048.51 594.22 1048.51 621.19 959.79 621.19 959.79 456.38 994.38 456.38"/>
    <polygon class="cls-1" points="1268.05 456.38 1268.05 621.19 1235.72 621.19 1233.46 618.95 1233.46 458.62 1235.72 456.38 1268.05 456.38"/>
  </g>
  <g>
    <g>
      <path class="cls-1" d="M759.59,552.58c-5.97,61.09-52.44,113.3-112.46,126.07-6.82,1.45-17.84,4.12-23.88.84-4.75-2.58-6.81-7.13-7.34-12.37-.97-9.68-.92-29.69-.04-39.44,1.42-15.82,13.59-15.2,25.09-19.25,16.27-5.72,31-17.72,39.65-32.61,3.72-6.41,5.66-13.28,8.85-19.88,12.09,4.51,22.53,11.11,36.05,9.77,11.66-1.15,22.44-11.03,34.08-13.13Z"/>
      <path class="cls-1" d="M571.47,560.06l.04,97.98c-5.05,12.66-12.86,11.81-23.49,6.35-40.7-20.89-70.49-67.15-74.17-112.63,10.8,4.64,19.22,9.57,31.61,8.21,10.57-1.16,20.34-11.01,31.28-12.23,14.24-1.59,22.1,8.63,34.72,12.32Z"/>
    </g>
    <path class="cls-1" d="M571.44,419.41s.26-11.41-10.94-11.35-81.88,37.68-86.16,119.58c28.77,24.35,57.25-2.07,57.25-2.07,0,0,39.84-.74,39.84,12.24,0,.01,0-118.39,0-118.39Z"/>
    <path class="cls-1" d="M615.7,406.35v50.85s1.93,9.64,12.26,11.12,55.7,17.49,61.09,64.04c24.13,28.7,50.91,6.64,50.91,6.64l19.18-5.16s-4.65-57.62-44.27-97.24c-39.62-39.62-91.34-37.63-91.34-37.63l-7.83,7.39Z"/>
  </g>
</svg>