<?xml version="1.0" encoding="UTF-8"?>
<svg id="Layer_1" data-name="Layer 1" xmlns="http://www.w3.org/2000/svg" viewBox="0 0 1920 1080">
  <defs>
    <style>
      .cls-1 {
        fill: #fff;
      }
    </style>
  </defs>
  <path id="Path_1591" data-name="Path 1591" class="cls-1" d="M804.24,675.02l-175.75-264.03-176.29,264.03h245.61l-69.32-100.77-34.38,52.36h-36.57l70.95-105.27,102.61,153.69h73.14Z"/>
  <path id="Path_1592" data-name="Path 1592" class="cls-1" d="M967.44,541.24c-2.05,0-2.93.88-2.93,2.93v17.57c0,2.05.88,2.93,2.93,2.93h58.26v30.74c-11.42,18.74-31.91,29.57-59.14,29.57-43.62,0-70.55-28.1-70.55-81.97,0-53.57,31.62-81.97,67.63-81.97,28.1,0,50.94,11.12,58.26,38.06.59,2.05,1.76,2.93,3.51,2.93h18.74c2.05,0,3.22-.88,3.22-2.93-7.9-40.98-43.04-61.48-83.73-61.48-45.67,0-93.39,35.13-93.39,105.39s45.08,105.39,97.49,105.39c31.91,0,60.89-13.17,79.63-42.16,2.05-2.93,2.93-6.73,2.93-11.12v-50.94c0-2.05-.88-2.93-2.93-2.93h-79.92ZM1271.32,443.46c0-2.05-.88-2.93-2.93-2.93h-27.81c-2.34,0-3.81.88-4.68,2.93l-56.79,130.27-56.79-130.27c-.88-2.05-2.34-2.93-4.68-2.93h-27.81c-2.05,0-2.93.88-2.93,2.93v199.07c0,2.05.88,2.93,2.93,2.93h18.74c2.05,0,2.93-.88,2.93-2.93v-163.65l57.38,129.69c.88,1.76,2.05,2.63,3.81,2.63h12.88c1.76,0,2.93-.88,3.81-2.63l57.38-129.69v163.65c0,2.05.88,2.93,2.93,2.93h18.74c2.05,0,2.93-.88,2.93-2.93v-199.07ZM1335.13,443.46c-2.05-2.63-2.05-2.93-4.1-2.93h-22.54c-2.05,0-2.93,1.46-2.05,2.93l62.06,93.97-69.67,105.1c-.88,1.46,0,2.93,2.05,2.93h21.96c2.05,0,2.63-.29,4.68-2.93l55.62-83.73,55.62,83.73c2.05,2.63,2.63,2.93,4.68,2.93h21.96c2.05,0,2.93-1.46,2.05-2.93l-69.67-105.1,62.06-93.97c.88-1.46,0-2.93-2.05-2.93h-22.54c-2.05,0-2.05.29-4.1,2.93l-48.01,72.31-48.01-72.31Z"/>
</svg>