<?xml version="1.0" encoding="UTF-8"?>
<svg id="Layer_1" data-name="Layer 1" xmlns="http://www.w3.org/2000/svg" viewBox="0 0 1920 1080">
  <defs>
    <style>
      .cls-1 {
        fill: gray;
      }

      .cls-2 {
        fill: #fff;
      }
    </style>
  </defs>
  <path id="path6" class="cls-2" d="M524.25,497.26c-34.32-19.12-72.89-31.54-113.93-35.5v80.38l-28.48,12.24-28.48-12.23v-80.38c-41.04,3.96-79.6,16.38-113.93,35.5,0,0-6.81,187.74,142.41,256.22h.02c149.21-68.49,142.41-256.22,142.41-256.22h0ZM436.35,586.88l-30.94,13.29-21.75,9.34,25.57.26c.61,0,1.03,70.39.92,70.56l-28.29,42.33h0l-28.48-42.61s.49-70.84,1.1-70.84l25.49.26-21.67-9.31-30.94-13.29-30.94-13.29,30.94-13.29,54.07,23.24c.28.12.59.12.87,0l54.07-23.24,30.94,13.29-30.94,13.29h-.02Z"/>
  <path id="path8" class="cls-1" d="M467.29,600.17l-30.94-13.29-54.07,23.24c-.28.12-.59.12-.87,0l-54.07-23.24-30.94,13.29,30.94,13.29,30.94,13.29,23.56,10.13,23.56-10.13,30.94-13.29,30.94-13.29h0Z"/>
  <path id="path10" class="cls-1" d="M467.29,546.91s-31.65-13.6-56.96-24.48v19.7l-28.48,12.24-28.48-12.23h0v-19.7l-54.61,23.47c-.89.38-.89,1.64,0,2.02l28.59,12.29,54.07,23.24c.28.12.59.12.87,0l54.07-23.24,30.94-13.29v-.02Z"/>
  <path id="path12" class="cls-2" d="M479.06,430.46c-25.03-7.53-51.29-12.23-78.4-13.74l-6.48-58.37c-.16-1.47.31-2.94,1.3-4.03,3.09-3.37,4.98-7.87,4.98-12.82,0-10.48-8.5-18.98-18.98-18.98h-.09c-10.48,0-18.98,8.5-18.98,18.98,0,4.94,1.89,9.44,4.98,12.82,1,1.09,1.47,2.56,1.3,4.03l-6.48,58.37c-27.11,1.52-53.37,6.21-78.4,13.74l11.91,27.07.84-.26c26.74-7.82,55.8-11.73,84.86-11.72h0c29.07,0,58.14,3.9,84.89,11.72l.87.2,11.88-27.01h-.02Z"/>
  <g id="g28">
    <path id="path14" class="cls-2" d="M667.33,504.25c-32.09,0-53.48,20.78-53.48,58.84s22.22,58.84,53.07,58.84c28.39,0,48.34-16.86,54.1-44.43l17.08,6.17c-9.88,36.61-34.56,54.72-70.97,54.72-47.11,0-71.38-30.03-71.38-74.88,0-50.8,31.27-75.7,70.76-75.7,36.2,0,61.09,20.98,66.65,57.6l-17.69,4.32c-3.9-30.24-23.25-45.46-48.13-45.46h-.02Z"/>
    <path id="path16" class="cls-2" d="M899,619.03c-12.34,0-12.34-3.9-12.34-13.16v-59.04c0-33.94-18.1-59.04-58.42-59.04-48.13,0-59.66,36.41-61.92,50.39l17.9,3.9c2.88-12.55,8.43-37.84,43.2-37.84,40.11,0,40.73,28.8,40.73,38.06v1.02c-17.9,0-48.55,4.12-67.47,10.9-21.39,7.82-34.56,24.89-34.56,43.61,0,26.12,22.22,40.31,44.23,40.31s48.55-13.37,58.01-32.29l2.06,29.21h38.26v-15.84l-9.67-.2h0ZM810.34,620.47c-20.37,0-25.3-12.14-25.3-22.21,0-9.05,4.12-21.6,20.78-27.77,18.31-6.79,51.63-13.37,62.33-13.98l.2,21.8c-2.26,19.13-29.62,42.17-58.01,42.17Z"/>
    <path id="path18" class="cls-2" d="M1191.48,621.92c22.43,0,44.43-10.49,53.07-40.53l16.45,7.41c-10.49,36.2-40.11,49.57-69.53,49.57-41.96,0-71.58-29-71.58-75.29s29.62-75.29,71.58-75.29c44.84,0,71.17,28.18,69.53,77.96h-123.01c1.02,33.33,20.78,56.15,53.48,56.15h0ZM1242.7,549.3c-2.47-24.48-16.86-45.05-51.22-45.05-28.8,0-47.72,17.9-52.45,45.05h103.68Z"/>
    <path id="path20" class="cls-2" d="M1313.07,491.09v126.5h77.55v17.49h-96.06v-143.99h18.51Z"/>
    <path id="path22" class="cls-2" d="M1407.07,563.08c0-46.29,27.57-75.29,71.58-75.29s71.58,29,71.58,75.29-27.57,75.29-71.58,75.29-71.58-29-71.58-75.29ZM1478.65,621.92c32.92,0,53.48-22.63,53.48-58.84s-20.57-58.84-53.48-58.84-53.48,22.63-53.48,58.84,20.57,58.84,53.48,58.84Z"/>
    <path id="path24" class="cls-2" d="M1682.63,508.16h-49.57v126.92h-18.51v-126.92h-49.57v-17.08h117.66v17.08h0Z"/>
    <path id="path26" class="cls-2" d="M1005.31,634.96l-46.4-120.69.05,120.68h-18.56v-143.86h29.01l44.83,113.33,44.12-113.32h29.79v143.98h-18.49v-121.92l-47.39,121.9-16.96-.1h0Z"/>
  </g>
</svg>