<?xml version="1.0" encoding="UTF-8"?>
<svg id="Layer_1" data-name="Layer 1" xmlns="http://www.w3.org/2000/svg" viewBox="0 0 1920 1080">
  <defs>
    <style>
      .cls-1 {
        fill: #fff;
      }
    </style>
  </defs>
  <path class="cls-1" d="M805.65,424h-214.04c-1.32,0-2.59.52-3.52,1.46-.93.93-1.46,2.2-1.46,3.52v214.04c0,1.32.52,2.59,1.46,3.52.93.93,2.2,1.46,3.52,1.46h214.04c1.32,0,2.59-.52,3.52-1.46.93-.93,1.46-2.2,1.46-3.52v-214.04c0-1.32-.52-2.59-1.46-3.52-.93-.93-2.2-1.46-3.52-1.46ZM735.96,568.35c0,1.32-.52,2.59-1.46,3.52s-2.2,1.46-3.52,1.46h-64.71c-1.32,0-2.59-.53-3.52-1.46-.93-.93-1.46-2.2-1.46-3.52v-64.71c0-1.32.52-2.59,1.46-3.52.93-.93,2.2-1.46,3.52-1.46h64.71c1.32,0,2.59.52,3.52,1.46.93.93,1.46,2.2,1.46,3.52v64.71Z"/>
  <path class="cls-1" d="M1253.76,498.67h-64.71c-2.75,0-4.98,2.23-4.98,4.98v64.71c0,2.75,2.23,4.98,4.98,4.98h64.71c2.75,0,4.98-2.23,4.98-4.98v-64.71c0-2.75-2.23-4.98-4.98-4.98Z"/>
  <path class="cls-1" d="M1179.06,424.01h-64.71c-2.75,0-4.98,2.23-4.98,4.98v64.71c0,2.75,2.23,4.98,4.98,4.98h64.71c2.75,0,4.98-2.23,4.98-4.98v-64.71c0-2.75-2.23-4.98-4.98-4.98Z"/>
  <path class="cls-1" d="M1328.39,424.01h-64.71c-2.75,0-4.98,2.23-4.98,4.98v64.71c0,2.75,2.23,4.98,4.98,4.98h64.71c2.75,0,4.98-2.23,4.98-4.98v-64.71c0-2.75-2.23-4.98-4.98-4.98Z"/>
  <path class="cls-1" d="M1179.06,573.33h-64.71c-2.75,0-4.98,2.23-4.98,4.98v64.71c0,2.75,2.23,4.98,4.98,4.98h64.71c2.75,0,4.98-2.23,4.98-4.98v-64.71c0-2.75-2.23-4.98-4.98-4.98Z"/>
  <path class="cls-1" d="M1328.39,573.33h-64.71c-2.75,0-4.98,2.23-4.98,4.98v64.71c0,2.75,2.23,4.98,4.98,4.98h64.71c2.75,0,4.98-2.23,4.98-4.98v-64.71c0-2.75-2.23-4.98-4.98-4.98Z"/>
  <path class="cls-1" d="M1066.97,424.01h-64.71c-2.75,0-4.98,2.23-4.98,4.98v64.71c0,2.75,2.23,4.98,4.98,4.98h64.71c2.75,0,4.98-2.23,4.98-4.98v-64.71c0-2.75-2.23-4.98-4.98-4.98Z"/>
  <path class="cls-1" d="M1066.97,573.33h-64.71c-2.75,0-4.98,2.23-4.98,4.98v64.71c0,2.75,2.23,4.98,4.98,4.98h64.71c2.75,0,4.98-2.23,4.98-4.98v-64.71c0-2.75-2.23-4.98-4.98-4.98Z"/>
  <path class="cls-1" d="M997.29,503.59c0-1.32-.53-2.59-1.46-3.52-.93-.93-2.2-1.46-3.52-1.46h-69.69v-69.63c0-1.32-.52-2.59-1.46-3.52s-2.2-1.46-3.52-1.46h-64.71c-1.32,0-2.59.52-3.52,1.46-.93.93-1.46,2.2-1.46,3.52v213.93c0,1.32.52,2.59,1.46,3.52.93.93,2.2,1.46,3.52,1.46h64.71c1.32,0,2.59-.52,3.52-1.46.93-.93,1.46-2.2,1.46-3.52v-69.63h69.69c1.32,0,2.59-.52,3.52-1.46.93-.93,1.46-2.2,1.46-3.52v-64.71Z"/>
</svg>