<?xml version="1.0" encoding="UTF-8"?>
<svg id="Layer_1" data-name="Layer 1" xmlns="http://www.w3.org/2000/svg" viewBox="0 0 1920 1080">
  <defs>
    <style>
      .cls-1 {
        fill-rule: evenodd;
      }

      .cls-1, .cls-2 {
        fill: #fff;
      }
    </style>
  </defs>
  <path class="cls-2" d="M421.35,410.48c-3.95-.61-4.12-.68-2.26-.96,3.56-.54,11.97.2,17.77,1.57,13.53,3.2,25.85,11.39,38.99,25.94l3.49,3.87,5-.8c21.04-3.36,42.45-.69,60.36,7.53,4.93,2.26,12.69,6.77,13.66,7.92.31.37.88,2.74,1.26,5.28,1.33,8.77.66,15.49-2.03,20.5-1.47,2.73-1.55,3.6-.56,5.93.79,1.87,2.98,3.25,5.16,3.24,4.45,0,9.24-7.16,11.46-17.11l.88-3.95,1.75,1.97c9.58,10.79,17.1,25.51,18.4,35.98l.34,2.73-1.61-2.48c-2.77-4.27-5.55-7.18-9.12-9.53-6.43-4.23-13.22-5.67-31.22-6.61-16.25-.85-25.45-2.23-34.57-5.19-15.52-5.03-23.34-11.73-41.78-35.78-8.19-10.68-13.25-16.59-18.28-21.35-11.44-10.81-22.68-16.49-37.07-18.7Z"/>
  <path class="cls-2" d="M562.03,434.33c.41-7.16,1.38-11.88,3.35-16.19.78-1.71,1.51-3.1,1.62-3.1s-.23,1.26-.75,2.8c-1.43,4.18-1.66,9.91-.68,16.57,1.25,8.45,1.96,9.67,10.94,18.79,4.21,4.28,9.11,9.68,10.89,12l3.23,4.21-3.23-3.01c-3.95-3.68-13.03-10.87-15.04-11.89-1.35-.69-1.55-.68-2.38.14-.76.76-.93,1.89-1.03,7.27-.16,8.38-1.31,13.76-4.09,19.13-1.5,2.91-1.73,2.29-.38-1,1.01-2.45,1.12-3.53,1.11-11.64-.02-16.3-1.96-20.21-13.37-26.93-2.89-1.7-7.65-4.15-10.58-5.45-2.93-1.3-5.26-2.43-5.17-2.51.32-.32,11.45,2.91,15.93,4.62,6.66,2.55,7.76,2.88,8.57,2.57.54-.21.8-1.78,1.07-6.39Z"/>
  <path class="cls-2" d="M429.02,462.21c-8.02-10.98-12.98-27.81-11.91-40.39l.33-3.89,1.83.33c3.43.62,9.34,2.81,12.11,4.48,7.59,4.59,10.88,10.62,14.23,26.13.98,4.54,2.27,9.68,2.86,11.42.95,2.8,4.55,9.34,7.48,13.59,2.11,3.06.71,4.51-3.95,4.09-7.11-.64-16.75-7.25-22.97-15.76Z"/>
  <path class="cls-2" d="M552.3,543.91c-37.48-15-50.68-28.03-50.68-50,0-3.23.11-5.88.25-5.88s1.59,1.07,3.22,2.37c7.6,6.06,16.11,8.65,39.67,12.07,13.86,2.01,21.66,3.64,28.86,6.01,22.87,7.54,37.03,22.85,40.4,43.7.98,6.06.41,17.42-1.18,23.41-1.26,4.73-5.09,13.25-6.1,13.58-.28.09-.56-.98-.63-2.44-.39-7.83-4.36-15.45-11.05-21.16-7.6-6.49-17.8-11.66-42.76-21.65Z"/>
  <path class="cls-2" d="M525.99,550.14c-.47-2.78-1.28-6.33-1.81-7.88l-.96-2.83,1.78,1.98c2.46,2.74,4.4,6.25,6.05,10.93,1.26,3.57,1.4,4.63,1.39,10.43,0,5.69-.17,6.89-1.33,10.1-1.83,5.06-4.1,8.66-7.91,12.51-6.85,6.93-15.65,10.76-28.35,12.35-2.21.28-8.64.74-14.3,1.03-14.26.74-23.64,2.26-32.07,5.2-1.21.42-2.29.68-2.4.57-.34-.34,5.4-3.74,10.14-6.01,6.69-3.2,13.34-4.95,28.25-7.42,7.37-1.22,14.97-2.7,16.9-3.29,18.24-5.56,27.62-19.91,24.62-37.67Z"/>
  <path class="cls-2" d="M543.17,580.47c-4.98-10.64-6.12-20.92-3.39-30.5.29-1.02.76-1.86,1.04-1.86s1.46.63,2.61,1.4c2.29,1.54,6.9,4.12,19.16,10.77,15.3,8.29,24.02,14.71,29.95,22.05,5.2,6.43,8.41,13.74,9.96,22.67.88,5.05.36,17.22-.94,22.31-4.11,16.05-13.67,28.66-27.31,36.01-2,1.08-3.79,1.96-3.99,1.97-.19,0,.53-1.84,1.62-4.09,4.59-9.53,5.11-18.81,1.64-29.13-2.12-6.32-6.45-14.03-15.19-27.07-10.16-15.15-12.65-19.19-15.16-24.53Z"/>
  <path class="cls-2" d="M402.41,637.9c13.91-11.68,31.21-19.97,46.97-22.52,6.79-1.1,18.11-.66,24.4.94,10.08,2.57,19.1,8.31,23.79,15.16,4.59,6.69,6.55,12.52,8.6,25.5.81,5.12,1.69,10.26,1.95,11.42,1.54,6.72,4.53,12.1,8.24,14.8,5.89,4.29,16.03,4.55,26.01.68,1.69-.66,3.16-1.11,3.27-1.01.36.36-4.66,3.7-8.21,5.46-4.77,2.37-8.56,3.28-13.6,3.28-9.14,0-16.72-4.62-23.05-14.05-1.25-1.85-4.05-7.41-6.22-12.34-6.68-15.16-9.98-19.77-17.74-24.83-6.75-4.4-15.46-5.18-22.02-1.99-8.61,4.2-11.01,15.13-4.84,22.06,2.45,2.75,7.02,5.13,10.75,5.59,6.99.86,13-4.42,13-11.44,0-4.56-1.76-7.16-6.19-9.14-6.05-2.72-12.56.46-12.53,6.11.01,2.41,1.07,3.93,3.5,5.02,1.56.7,1.6.76.32.49-5.56-1.15-6.86-7.8-2.39-12.23,5.36-5.31,16.45-2.96,20.26,4.28,1.6,3.04,1.79,9.1.39,12.76-3.12,8.19-12.22,12.5-21.46,10.15-6.29-1.6-8.85-3.32-16.43-11.09-13.17-13.49-18.28-16.1-37.27-19.05l-3.64-.56,4.14-3.48Z"/>
  <path class="cls-1" d="M340.61,396.46c43.99,53.08,74.28,74.98,77.65,79.61,2.78,3.82,1.73,7.26-3.03,9.95-2.65,1.5-8.09,3.01-10.82,3.01-3.08,0-4.14-1.18-4.14-1.18-1.79-1.69-2.79-1.39-11.97-17.59-12.75-19.66-23.41-35.97-23.7-36.25q-.67-.63,22.4,40.42c3.73,8.55.74,11.69.74,12.91,0,2.48-.68,3.78-3.75,7.19-5.12,5.68-7.42,12.07-9.07,25.29-1.85,14.82-7.07,25.29-21.51,43.2-8.46,10.49-9.84,12.41-11.97,16.64-2.69,5.32-3.43,8.3-3.73,15.02-.32,7.11.3,11.7,2.48,18.49,1.91,5.95,3.91,9.88,9.01,17.73,4.4,6.78,6.94,11.82,6.94,13.79,0,1.57.3,1.57,7.12.04,16.33-3.67,29.58-10.11,37.04-18.01,4.61-4.89,5.7-7.59,5.73-14.29.02-4.38-.13-5.3-1.32-7.82-1.94-4.1-5.47-7.52-13.25-12.81-10.2-6.93-14.55-12.51-15.76-20.19-.99-6.3.16-10.74,5.8-22.5,5.84-12.17,7.29-17.35,8.27-29.62.63-7.92,1.51-11.05,3.8-13.56,2.39-2.62,4.54-3.5,10.45-4.3,9.64-1.31,15.77-3.79,20.82-8.41,4.38-4.01,6.21-7.87,6.49-13.69l.21-4.41-2.44-2.83c-8.85-10.26-94.38-83.9-94.93-83.9-.12,0,2.8,3.63,6.47,8.07ZM361.09,602.71c2-3.52.94-8.06-2.41-10.27-3.16-2.09-8.08-1.11-8.08,1.62,0,.83.46,1.44,1.51,1.97,1.76.9,1.88,1.91.5,3.97-1.4,2.09-1.29,3.93.32,5.18,2.59,2.01,6.25.91,8.16-2.47Z"/>
  <path class="cls-1" d="M437.59,503.93c-4.52,1.38-8.92,6.15-10.28,11.15-.83,3.05-.36,8.4.88,10.05,2.01,2.67,3.95,3.37,9.21,3.33,10.3-.07,19.26-4.46,20.3-9.96.85-4.5-3.08-10.74-8.5-13.48-2.79-1.41-8.74-1.97-11.62-1.1ZM449.63,513.3c1.59-2.24.89-4.67-1.81-6.31-5.14-3.12-12.93-.54-12.93,4.29,0,2.41,4.06,5.03,7.78,5.03,2.48,0,5.86-1.47,6.96-3.01Z"/>
  <path class="cls-2" d="M1468.78,679.21v-160.15h23.11v18.16c6.37-10.38,18.63-20.99,39.15-20.99,30.66,0,52.83,24.29,52.83,61.09s-22.17,61.09-52.83,61.09c-20.99,0-33.02-11.09-38.92-20.52v61.32h-23.35ZM1525.62,619.77c22.88,0,33.96-19.1,33.96-42.45s-11.08-42.45-33.96-42.45-34.44,19.58-34.44,42.45,11.56,42.45,34.44,42.45Z"/>
  <path class="cls-2" d="M1381.65,638.4c-20.99,0-39.86-12.74-39.86-34.44s14.86-30.9,40.1-35.85l16.04-3.3c12.5-2.59,18.4-5.19,18.4-14.86s-8.02-16.51-22.17-16.51c-15.33,0-25.24,9.43-26.18,25l-24.06-2.12c1.65-25,21.7-40.09,50.47-40.09s45.52,14.39,45.52,38.92v80.43h-22.41v-13.68h-.24c-5.43,8.96-17.45,16.51-35.61,16.51ZM1387.78,621.66c16.51,0,29.48-10.85,29.48-30.19v-14.15c-24.53,4.01-36.09,7.31-43.16,11.79-5.42,3.3-8.49,8.02-8.49,14.39,0,10.85,8.96,18.16,22.17,18.16Z"/>
  <path class="cls-2" d="M1191.7,635.58l-37.03-116.51h24.77l25.47,87.97h.24l26.42-87.97h23.35l26.65,87.74h.24l25.47-87.74h24.29l-37.03,116.51h-24.53l-26.42-89.86h-.24l-26.89,89.86h-24.76Z"/>
  <path class="cls-2" d="M1097.52,638.4c-29.01,0-50.24-13.44-52.83-41.28l23.11-2.83c1.18,18.4,14.15,26.89,30.19,26.89s26.42-7.08,26.42-18.4-10.85-13.68-25.47-16.98l-17.22-4.01c-18.87-4.48-31.84-13.44-31.84-31.37,0-19.81,19.58-34.2,47.17-34.2s44.81,13.44,47.88,35.14l-23.35,3.3c-1.65-13.92-11.79-21.23-25.47-21.23s-22.88,6.84-22.88,15.8c0,8.49,5.19,11.56,19.81,14.86l17.22,4.01c24.53,5.66,37.5,13.68,37.5,32.31,0,23.35-21.7,37.97-50.24,37.97Z"/>
  <path class="cls-2" d="M1001.21,635.58v-116.51h23.35v116.51h-23.35ZM1001.21,500.9v-27.59h23.35v27.59h-23.35Z"/>
  <path class="cls-2" d="M870.67,635.57v-116.51h23.11v16.51h.24c6.6-10.14,19.58-19.34,37.27-19.34,25.94,0,41.27,15.57,41.27,43.87v75.47h-23.35v-65.33c0-20.99-4.72-34.43-24.29-34.43s-30.9,15.8-30.9,34.67v65.1h-23.35Z"/>
  <path class="cls-2" d="M779.87,638.41c-38.68,0-62.27-21.94-62.27-62.27v-102.83h24.53v101.42c0,26.18,12.26,43.16,37.74,43.16,27.59,0,37.74-16.98,37.74-43.16v-101.42h24.53v102.83c0,40.33-23.59,62.27-62.27,62.27Z"/>
</svg>